<svg xmlns="http://www.w3.org/2000/svg" width="1200" height="675" viewBox="0 0 1200 675" role="img" aria-labelledby="title desc">
  <title id="title">Abalone Classifier preview</title>
  <desc id="desc">Tabular age classifier interface with shell measurements and prediction panels.</desc>
  <rect width="1200" height="675" fill="#f8fafc"/>
  <rect x="96" y="72" width="1008" height="531" rx="30" fill="#111827"/>
  <rect x="144" y="126" width="456" height="423" rx="20" fill="#f9fafb"/>
  <rect x="648" y="126" width="408" height="114" rx="18" fill="#ecfccb"/>
  <rect x="648" y="282" width="408" height="267" rx="18" fill="#dbeafe"/>
  <g fill="#111827">
    <rect x="192" y="174" width="210" height="18" rx="9"/>
    <rect x="192" y="234" width="276" height="12" rx="6"/>
    <rect x="192" y="282" width="246" height="12" rx="6"/>
    <rect x="192" y="330" width="294" height="12" rx="6"/>
    <rect x="192" y="378" width="234" height="12" rx="6"/>
    <rect x="192" y="426" width="264" height="12" rx="6"/>
  </g>
  <g fill="#94a3b8">
    <rect x="498" y="228" width="54" height="24" rx="12"/>
    <rect x="498" y="276" width="54" height="24" rx="12"/>
    <rect x="498" y="324" width="54" height="24" rx="12"/>
    <rect x="498" y="372" width="54" height="24" rx="12"/>
    <rect x="498" y="420" width="54" height="24" rx="12"/>
  </g>
  <path d="M714 426C762 342 846 318 942 366C990 390 1014 426 1002 462C984 516 888 540 786 516C714 498 690 468 714 426Z" fill="#0f766e"/>
  <path d="M756 426C792 372 852 354 924 384C954 396 972 420 966 444C954 486 876 504 798 486C750 474 738 450 756 426Z" fill="#ccfbf1"/>
  <path d="M780 438C816 414 864 408 924 426" fill="none" stroke="#111827" stroke-width="10" stroke-linecap="round" opacity=".5"/>
  <path d="M800 468C846 480 894 474 942 450" fill="none" stroke="#111827" stroke-width="8" stroke-linecap="round" opacity=".35"/>
  <g fill="#111827">
    <rect x="696" y="168" width="132" height="18" rx="9"/>
    <rect x="696" y="204" width="264" height="12" rx="6" opacity=".45"/>
    <rect x="696" y="318" width="102" height="16" rx="8"/>
    <rect x="816" y="318" width="72" height="16" rx="8" opacity=".5"/>
    <rect x="906" y="318" width="96" height="16" rx="8" opacity=".5"/>
  </g>
  <path d="M600 338H648" stroke="#2563eb" stroke-width="10" stroke-linecap="round"/>
  <path d="M648 338H690" stroke="#2563eb" stroke-width="10" stroke-linecap="round" stroke-dasharray="2 20"/>
</svg>
