<svg xmlns="http://www.w3.org/2000/svg" width="1200" height="675" viewBox="0 0 1200 675" role="img" aria-labelledby="title desc">
  <title id="title">MNIST Digit Classifier preview</title>
  <desc id="desc">Neural network digit classifier with handwritten number tiles and prediction scores.</desc>
  <rect width="1200" height="675" fill="#f8fafc"/>
  <rect x="96" y="72" width="1008" height="531" rx="30" fill="#111827"/>
  <rect x="144" y="126" width="354" height="423" rx="20" fill="#f9fafb"/>
  <rect x="546" y="126" width="510" height="180" rx="18" fill="#dbeafe"/>
  <rect x="546" y="354" width="510" height="195" rx="18" fill="#ccfbf1"/>
  <g fill="#111827">
    <rect x="192" y="174" width="174" height="18" rx="9"/>
    <rect x="192" y="468" width="222" height="14" rx="7" opacity=".5"/>
    <rect x="192" y="504" width="162" height="14" rx="7" opacity=".35"/>
  </g>
  <rect x="210" y="234" width="216" height="216" rx="18" fill="#111827"/>
  <path d="M345 270C300 270 274 297 274 333C274 365 296 386 327 386C360 386 381 365 381 333C381 306 366 287 339 282" fill="none" stroke="#f9fafb" stroke-width="24" stroke-linecap="round"/>
  <path d="M546 216H498" stroke="#2563eb" stroke-width="10" stroke-linecap="round"/>
  <path d="M498 216H450" stroke="#2563eb" stroke-width="10" stroke-linecap="round" stroke-dasharray="2 20"/>
  <g fill="#111827">
    <rect x="594" y="174" width="174" height="18" rx="9"/>
    <rect x="594" y="228" width="72" height="18" rx="9"/>
    <rect x="714" y="228" width="228" height="18" rx="9" opacity=".5"/>
    <rect x="594" y="402" width="90" height="18" rx="9"/>
    <rect x="594" y="456" width="312" height="18" rx="9" opacity=".5"/>
    <rect x="594" y="504" width="210" height="18" rx="9" opacity=".35"/>
  </g>
  <g fill="#2563eb">
    <circle cx="630" cy="282" r="14"/>
    <circle cx="708" cy="282" r="14"/>
    <circle cx="786" cy="282" r="14"/>
    <circle cx="864" cy="282" r="14"/>
    <circle cx="942" cy="282" r="14"/>
  </g>
  <g stroke="#111827" stroke-width="6" stroke-linecap="round" opacity=".45">
    <path d="M644 282H694"/>
    <path d="M722 282H772"/>
    <path d="M800 282H850"/>
    <path d="M878 282H928"/>
  </g>
</svg>
