<svg xmlns="http://www.w3.org/2000/svg" width="1200" height="675" viewBox="0 0 1200 675" role="img" aria-labelledby="title desc">
  <title id="title">PCB Visualizer preview</title>
  <desc id="desc">Stylized circuit board with traces and components.</desc>
  <rect width="1200" height="675" fill="#ecfeff"/>
  <rect x="126" y="84" width="948" height="507" rx="36" fill="#0f766e"/>
  <g stroke="#99f6e4" stroke-width="12" stroke-linecap="round" fill="none">
    <path d="M246 198H456V312H612"/>
    <path d="M720 198H930"/>
    <path d="M288 450H522V390H708"/>
    <path d="M804 456H936"/>
  </g>
  <g fill="#f8fafc">
    <rect x="492" y="264" width="216" height="144" rx="18"/>
    <rect x="204" y="162" width="84" height="72" rx="12"/>
    <rect x="876" y="162" width="84" height="72" rx="12"/>
    <rect x="876" y="420" width="84" height="72" rx="12"/>
    <circle cx="288" cy="450" r="24"/>
    <circle cx="720" cy="198" r="24"/>
    <circle cx="804" cy="456" r="24"/>
  </g>
  <g fill="#111827">
    <rect x="534" y="306" width="132" height="18" rx="9"/>
    <rect x="534" y="348" width="96" height="18" rx="9"/>
  </g>
</svg>
