<svg xmlns="http://www.w3.org/2000/svg" width="1200" height="675" viewBox="0 0 1200 675" role="img" aria-labelledby="title desc">
  <title id="title">Penguin Classifier preview</title>
  <desc id="desc">Tabular classifier interface with penguin measurements and species output.</desc>
  <rect width="1200" height="675" fill="#f8fafc"/>
  <rect x="96" y="72" width="1008" height="531" rx="30" fill="#111827"/>
  <rect x="144" y="126" width="420" height="423" rx="20" fill="#f9fafb"/>
  <rect x="612" y="126" width="444" height="162" rx="18" fill="#dbeafe"/>
  <rect x="612" y="330" width="204" height="219" rx="18" fill="#ccfbf1"/>
  <rect x="852" y="330" width="204" height="219" rx="18" fill="#fee2e2"/>
  <g fill="#111827">
    <rect x="192" y="174" width="204" height="18" rx="9"/>
    <rect x="192" y="234" width="276" height="12" rx="6"/>
    <rect x="192" y="282" width="228" height="12" rx="6"/>
    <rect x="192" y="330" width="252" height="12" rx="6"/>
    <rect x="192" y="378" width="186" height="12" rx="6"/>
  </g>
  <g fill="#94a3b8">
    <rect x="438" y="228" width="72" height="24" rx="12"/>
    <rect x="438" y="276" width="72" height="24" rx="12"/>
    <rect x="438" y="324" width="72" height="24" rx="12"/>
    <rect x="438" y="372" width="72" height="24" rx="12"/>
  </g>
  <path d="M636 444C636 372 688 318 756 318C824 318 876 372 876 444C876 505 828 549 756 549C684 549 636 505 636 444Z" fill="#111827"/>
  <ellipse cx="756" cy="451" rx="64" ry="84" fill="#f9fafb"/>
  <circle cx="732" cy="390" r="8" fill="#f9fafb"/>
  <circle cx="780" cy="390" r="8" fill="#f9fafb"/>
  <path d="M744 414H768L756 432Z" fill="#f59e0b"/>
  <path d="M612 207H564" stroke="#2563eb" stroke-width="10" stroke-linecap="round"/>
  <path d="M564 207H528" stroke="#2563eb" stroke-width="10" stroke-linecap="round" stroke-dasharray="2 20"/>
  <g fill="#111827">
    <rect x="660" y="174" width="204" height="18" rx="9"/>
    <rect x="660" y="222" width="312" height="12" rx="6" opacity=".45"/>
    <rect x="900" y="375" width="96" height="16" rx="8"/>
    <rect x="900" y="426" width="120" height="16" rx="8" opacity=".5"/>
    <rect x="900" y="477" width="78" height="16" rx="8" opacity=".5"/>
  </g>
</svg>
