<svg xmlns="http://www.w3.org/2000/svg" width="1200" height="675" viewBox="0 0 1200 675" role="img" aria-labelledby="title desc">
  <title id="title">The Sorter Project preview</title>
  <desc id="desc">Virtual sorting workspace with scattered objects, target bins, and an agent path.</desc>
  <rect width="1200" height="675" fill="#f8fafc"/>
  <rect x="96" y="72" width="1008" height="531" rx="30" fill="#111827"/>
  <rect x="150" y="126" width="624" height="423" rx="22" fill="#f9fafb"/>
  <rect x="816" y="126" width="234" height="126" rx="18" fill="#dbeafe"/>
  <rect x="816" y="294" width="234" height="126" rx="18" fill="#ccfbf1"/>
  <rect x="816" y="462" width="234" height="87" rx="18" fill="#fee2e2"/>
  <g fill="none" stroke="#94a3b8" stroke-width="4" opacity=".55">
    <path d="M204 198H720"/>
    <path d="M204 294H720"/>
    <path d="M204 390H720"/>
    <path d="M300 162V510"/>
    <path d="M420 162V510"/>
    <path d="M540 162V510"/>
    <path d="M660 162V510"/>
  </g>
  <path d="M282 432C348 354 420 312 504 306C594 300 654 246 705 198" fill="none" stroke="#2563eb" stroke-width="12" stroke-linecap="round" stroke-dasharray="2 28"/>
  <g fill="#111827">
    <circle cx="282" cy="432" r="26"/>
    <rect x="456" y="234" width="58" height="58" rx="14"/>
    <path d="M630 396L666 336L702 396Z"/>
  </g>
  <g fill="#0f766e">
    <circle cx="648" cy="210" r="22"/>
    <rect x="240" y="258" width="54" height="54" rx="12"/>
    <path d="M360 462L390 414L420 462Z"/>
  </g>
  <g fill="#dc2626">
    <circle cx="390" cy="198" r="20"/>
    <rect x="594" y="438" width="50" height="50" rx="12"/>
    <path d="M510 390L540 342L570 390Z"/>
  </g>
  <g fill="#111827">
    <rect x="858" y="168" width="150" height="18" rx="9"/>
    <rect x="858" y="336" width="132" height="18" rx="9"/>
    <rect x="858" y="493" width="108" height="16" rx="8"/>
  </g>
  <g opacity=".35" fill="#111827">
    <circle cx="870" cy="216" r="12"/>
    <circle cx="906" cy="216" r="12"/>
    <circle cx="942" cy="216" r="12"/>
    <rect x="864" y="384" width="30" height="30" rx="7"/>
    <rect x="906" y="384" width="30" height="30" rx="7"/>
    <path d="M864 534L882 504L900 534Z"/>
    <path d="M918 534L936 504L954 534Z"/>
  </g>
</svg>
